<svg width="267" height="169" viewBox="0 0 267 169" fill="none" xmlns="http://www.w3.org/2000/svg">
<path d="M150.2 14.9008C144.4 8.90078 136.8 5.80078 127.4 5.80078C116.7 5.80078 107.1 9.70078 100.3 16.3008C89.9 26.3008 84 41.8008 84 58.9008C84 69.2008 86.9 77.3008 92.7 83.3008C98.4 89.3008 106 92.3008 115.5 92.3008C122.1 92.3008 128.2 90.9008 133.8 88.0008C139.3 85.2008 143.9 81.3008 147.6 76.5008C154.9 66.8008 159.1 53.7008 159.1 39.5008C158.9 29.2008 156 21.0008 150.2 14.9008ZM132.3 63.4008C129 70.0008 123.6 74.5008 117.2 74.5008C110.1 74.5008 105.6 67.9008 105.6 57.0008C105.6 41.9008 112.3 23.5008 125.6 23.5008C132.7 23.5008 137.3 30.1008 137.3 41.2008C137.3 48.8008 135.6 56.8008 132.3 63.4008Z" fill="url(#paint0_linear_2997_54558)"/>
<path d="M86.9 77.6016C81.2 71.6016 78.2 63.5016 78.2 53.2016C78.2 36.1016 84.0999 20.7016 94.4999 10.6016C101.3 4.00156 110.9 0.101562 121.6 0.101562C131 0.101562 138.6 3.10156 144.4 9.20156C150.2 15.3016 153.1 23.5016 153.1 33.7016C153.1 47.9016 148.9 61.1016 141.6 70.7016C138 75.5016 133.4 79.4016 127.8 82.2016C122.2 85.0016 116.1 86.5016 109.5 86.5016C100.3 86.6016 92.7 83.5016 86.9 77.6016ZM126.6 57.8016C129.9 51.2016 131.6 43.2016 131.6 35.6016C131.6 24.5016 127 17.9016 119.9 17.9016C106.6 17.9016 99.9 36.3016 99.9 51.4016C99.9 62.3016 104.3 68.9016 111.5 68.9016C117.9 68.8016 123.4 64.3016 126.6 57.8016Z" fill="white"/>
<path d="M193.509 151.063L58.5562 153.968C54.4565 154.017 51.3156 150.998 51.729 147.61L56.305 114.538C56.7123 111.66 59.5234 109.497 62.799 109.478L197.752 106.573C201.852 106.524 204.993 109.543 204.579 112.931L200.003 146.003C199.596 148.881 196.785 151.044 193.509 151.063Z" fill="url(#paint1_linear_2997_54558)"/>
<path d="M190.801 147.93L55.8482 150.835C51.7485 150.884 48.6075 147.865 49.021 144.477L53.5969 111.406C54.0042 108.527 56.8153 106.365 60.0909 106.345L195.044 103.44C199.144 103.391 202.285 106.41 201.871 109.799L197.295 142.87C196.909 145.65 194.098 147.813 190.801 147.93Z" fill="white"/>
<path d="M71.551 135.156C70.3626 134.494 69.5092 133.699 68.8368 132.534C68.2622 131.39 67.9248 130.091 67.8246 128.638C67.722 125.754 68.6955 123.098 70.3266 121.196C71.9578 119.294 74.561 118.109 77.5432 118.027C79.7013 117.975 81.4203 118.545 82.7004 119.737C83.9805 120.929 84.5698 122.486 84.6638 124.448L80.0335 124.588C80.0042 123.764 79.7377 123.094 79.1361 122.557C78.6324 122.041 77.8707 121.777 77.0466 121.806C76.1247 121.815 75.336 122.159 74.5828 122.816C73.8296 123.474 73.349 124.292 72.9455 125.229C72.6397 126.186 72.411 127.262 72.4757 128.4C72.5405 129.539 72.7654 130.404 73.3254 131.137C73.8853 131.869 74.6263 132.231 75.569 132.125C77.2172 132.066 78.4448 131.1 79.1749 129.109L83.8052 128.968C83.3686 131.022 82.4075 132.658 80.9011 133.974C79.4154 135.191 77.6425 135.837 75.5822 135.91C74.1089 136.108 72.7394 135.817 71.551 135.156Z" fill="#26333C"/>
<path d="M98.2662 126.83C98.2601 127.34 98.2331 127.947 98.0876 128.632L97.0442 135.465L92.7281 135.569L93.7715 128.737C93.8754 128.248 93.8607 127.836 93.8253 127.522C93.8376 126.502 93.1383 125.944 92.0207 125.911C90.4703 125.991 89.5361 127.019 89.1973 129.094L88.1956 135.731L83.8794 135.836L86.6229 118.119L90.939 118.014L90.1244 123.77C91.0171 122.938 92.1407 122.461 93.4747 122.438C95.7514 122.308 98.2114 123.24 98.2662 126.83Z" fill="#26333C"/>
<path d="M110.819 123.569C111.924 124.621 112.555 125.982 112.515 127.61C112.545 128.434 112.518 129.041 112.393 129.628L103.251 129.832L103.209 130.028C103.182 130.635 103.372 131.187 103.778 131.682C104.184 132.177 104.75 132.4 105.476 132.35C106.712 132.306 107.424 131.844 107.827 130.907L112.144 130.802C111.853 132.172 111.212 133.262 110.005 134.13C108.798 134.998 107.36 135.51 105.614 135.548C103.554 135.622 101.856 134.954 100.75 133.901C99.6451 132.848 99.035 131.39 98.9764 129.741C98.9447 127.485 99.5354 125.669 100.944 124.332C102.255 122.975 104.049 122.232 106.304 122.2C108.19 121.987 109.713 122.516 110.819 123.569ZM108.247 127.009L108.289 126.813C108.245 125.577 107.427 125.097 106.191 125.141C104.954 125.185 104.083 125.919 103.735 127.072L108.247 127.009Z" fill="#26333C"/>
<path d="M124.177 121.807L127.885 121.675L125.846 134.635C125.674 135.927 125.368 136.884 124.573 137.738C124.176 138.164 123.778 138.591 123.304 138.899C122.257 139.495 120.722 139.986 118.682 139.961C116.308 140.07 114.316 139.34 113.175 137.973C112.615 137.241 112.292 136.354 112.305 135.334L116.621 135.23C116.783 136.389 117.699 136.89 119.033 136.867C120.681 136.808 121.693 135.899 121.948 134.215L122.017 133.412C121.18 134.461 120.036 135.035 118.604 135.038C117.074 135.019 115.844 134.553 114.739 133.501C113.732 132.469 113.199 131.128 113.14 129.48C113.067 127.42 113.895 125.449 115.108 124.071C116.321 122.693 118.037 121.831 119.881 121.814C121.823 121.818 122.914 122.459 123.586 123.624L124.177 121.807ZM121.935 130.43C122.513 129.632 122.798 128.773 122.734 127.634C122.675 125.986 121.822 125.191 120.488 125.215C119.566 125.223 118.854 125.685 118.296 126.385C117.718 127.182 117.433 128.041 117.498 129.18C117.556 130.828 118.41 131.623 119.744 131.6C120.568 131.57 121.357 131.227 121.935 130.43Z" fill="#26333C"/>
<path d="M127.551 134.792L129.513 121.714L133.927 121.63L131.867 134.687L127.551 134.792ZM130.572 120.099C130.145 119.702 129.955 119.15 129.884 118.522C129.834 117.796 130.057 117.229 130.573 116.726C131.089 116.222 131.661 115.935 132.367 115.982C132.995 115.912 133.561 116.134 133.988 116.532C134.415 116.929 134.604 117.48 134.675 118.109C134.725 118.835 134.503 119.401 133.987 119.905C133.471 120.409 132.898 120.696 132.193 120.648C131.467 120.698 130.998 120.497 130.572 120.099Z" fill="#26333C"/>
<path d="M144.305 121.381L143.689 125.237L142.16 125.218C140.414 125.256 139.242 126.439 138.945 128.318L137.95 134.445L133.634 134.55L135.595 121.472L139.597 121.402L139.635 123.148C140.513 121.904 141.658 121.329 143.501 121.312L144.305 121.381Z" fill="#26333C"/>
<path d="M165.208 125.005C165.258 125.732 165.21 126.437 165.044 127.22L164 134.052L159.684 134.157L160.728 127.325C160.852 126.738 160.859 126.228 160.844 125.816C160.815 124.992 160.311 124.476 159.291 124.464C157.957 124.487 157.121 125.536 156.782 127.611L155.78 134.247L151.464 134.352L152.507 127.52C152.632 126.933 152.638 126.423 152.624 126.011C152.594 125.187 152.091 124.671 151.071 124.659C149.737 124.682 148.88 125.829 148.562 127.806L147.56 134.443L143.244 134.547L145.206 121.47L149.012 121.359L149.133 122.713C150.067 121.685 151.093 121.187 152.741 121.129C154.292 121.049 155.697 121.655 156.327 123.016C157.324 121.694 158.803 120.986 160.647 120.969C162.826 120.819 165.188 121.73 165.208 125.005Z" fill="#26333C"/>
<path d="M179.052 130.095L178.499 133.658L176.439 133.731C174.909 133.713 174.231 133.057 174.145 132.017L174.166 131.919C173.608 132.618 173.092 133.122 172.499 133.507C171.927 133.795 171.062 134.02 170.14 134.028C167.786 134.039 165.563 132.953 165.573 130.502C165.512 127.422 167.689 125.84 171.69 125.77L174.358 125.724L174.442 125.332C174.483 125.137 174.525 124.941 174.546 124.843C174.495 124.117 173.852 123.776 172.833 123.764C172.106 123.814 171.576 123.905 171.318 124.157C171.06 124.409 170.92 124.584 170.816 125.073L166.5 125.178C167.103 122.341 169.357 120.878 173.065 120.746C174.811 120.708 176.18 120.999 177.152 121.717C178.145 122.337 178.72 123.482 178.743 124.816C178.778 125.13 178.675 125.619 178.668 126.129L178.24 129.105C178.199 129.3 178.157 129.496 178.136 129.594C178.151 130.006 178.326 130.145 178.738 130.131L179.052 130.095ZM174.013 128.309L172.051 128.403C170.521 128.384 169.908 128.867 169.895 129.887C169.945 130.613 170.47 131.031 171.196 130.981C172.02 130.952 172.593 130.665 173.109 130.161C173.604 129.755 173.847 129.091 174.013 128.309Z" fill="#26333C"/>
<path d="M131.1 43.1016C131.1 43.1016 130.6 46.7016 129.5 50.3016C128.4 53.9016 135 46.3016 135 46.3016L131.1 43.1016Z" fill="white"/>
<path d="M196.2 47.5C202.6 47.5 208 45.4 212.4 41.3C216.9 37.2 219.1 32 219.1 25.8C219.1 20.8 217.4 16.8 214.1 13.7C210.8 10.6 206.3 9 200.8 9C194.4 9 189 11.1 184.6 15.2C180.1 19.3 177.9 24.5 177.9 30.7C177.9 35.7 179.6 39.7 182.9 42.8C186.2 46 190.6 47.5 196.2 47.5ZM194.4 24.4C195.7 23 197.5 22.3 199.6 22.3C202.4 22.3 204.5 24.4 204.5 27.1C204.5 29.1 203.8 30.8 202.5 32.2C201.2 33.7 199.4 34.3 197.3 34.3C194.5 34.3 192.4 32.2 192.4 29.5C192.3 27.5 193 25.8 194.4 24.4Z" fill="url(#paint2_linear_2997_54558)"/>
<path d="M261.8 53.5008C258.4 50.4008 254 48.8008 248.5 48.8008C242.1 48.8008 236.7 50.9008 232.3 55.0008C227.8 59.1008 225.6 64.3008 225.6 70.5008C225.6 75.5008 227.3 79.5008 230.6 82.6008C234 85.7008 238.4 87.3008 243.9 87.3008C250.3 87.3008 255.7 85.2008 260.1 81.1008C264.6 77.0008 266.8 71.9008 266.8 65.7008C266.9 60.7008 265.2 56.7008 261.8 53.5008ZM250.3 72.0008C249 73.5008 247.2 74.2008 245.1 74.2008C242.3 74.2008 240.1 72.1008 240.1 69.3008C240.1 67.3008 240.8 65.6008 242.1 64.2008C243.4 62.7008 245.2 62.1008 247.4 62.1008C250.2 62.1008 252.3 64.2008 252.3 66.9008C252.4 68.9008 251.7 70.5008 250.3 72.0008Z" fill="url(#paint3_linear_2997_54558)"/>
<path d="M260.3 4.80078L249.1 7.70078L249.7 9.70078H246L185.5 79.7008L185.2 79.2008L174.6 81.9008L179.5 86.7008H198.6L265.1 9.70078L260.3 4.80078Z" fill="url(#paint4_linear_2997_54558)"/>
<path d="M178 38.0031C174.6 34.9031 173 30.9031 173 25.9031C173 19.7031 175.2 14.6031 179.7 10.4031C184.2 6.30313 189.5 4.20312 195.9 4.20312C201.4 4.20312 205.8 5.80313 209.2 8.90313C212.6 12.0031 214.2 16.0031 214.2 21.0031C214.2 27.2031 212 32.3031 207.5 36.5031C203 40.6031 197.7 42.7031 191.3 42.7031C185.8 42.7031 181.4 41.2031 178 38.0031ZM193.7 81.9031H174.6L241.1 4.90313H260.2L193.7 81.9031ZM197.7 27.3031C199 25.9031 199.7 24.2031 199.7 22.2031C199.7 19.5031 197.6 17.4031 194.8 17.4031C192.7 17.4031 190.9 18.1031 189.6 19.5031C188.3 21.0031 187.6 22.6031 187.6 24.6031C187.6 27.3031 189.7 29.4031 192.5 29.4031C194.5 29.5031 196.3 28.8031 197.7 27.3031ZM225.9 77.8031C222.5 74.7031 220.9 70.7031 220.9 65.7031C220.9 59.5031 223.1 54.4031 227.6 50.2031C232.1 46.0031 237.4 44.0031 243.8 44.0031C249.3 44.0031 253.7 45.6031 257.1 48.7031C260.5 51.9031 262.1 55.9031 262.1 60.9031C262.1 67.1031 259.9 72.2031 255.4 76.3031C250.9 80.4031 245.6 82.5031 239.2 82.5031C233.6 82.5031 229.2 81.0031 225.9 77.8031ZM245.5 67.1031C246.8 65.6031 247.5 64.0031 247.5 62.0031C247.5 59.3031 245.4 57.2031 242.6 57.2031C240.5 57.2031 238.7 57.9031 237.3 59.3031C236 60.8031 235.3 62.4031 235.3 64.4031C235.3 67.1031 237.4 69.3031 240.3 69.3031C242.4 69.3031 244.2 68.6031 245.5 67.1031Z" fill="white"/>
<path d="M74.2999 26.9008L77.2999 9.60078L71.4999 3.80078L66.9999 9.60078H19.7999L10.7 51.3008L8.49994 51.0008L3.19995 53.4008L8.99994 59.2008L29.4 60.0008C32.2 54.4008 36.9999 51.9008 42.0999 51.9008C44.8999 51.9008 47.2999 52.8008 49.2 54.6008C51.1 56.5008 51.9999 58.8008 51.9999 61.7008C51.9999 66.1008 50.7 69.8008 48.2 72.7008C45.7 75.7008 42.2999 77.1008 38.0999 77.1008C35.0999 77.1008 32.5999 76.1008 30.4999 74.1008C28.3999 72.1008 27.4 69.6008 27.4 66.4008V65.8008L21.5999 60.0008L17.5999 65.0008L18.0999 65.8008H6.69995C6.69995 66.0008 6.59991 67.3008 6.59991 67.9008C6.59991 72.5008 7.59995 76.7008 9.69995 80.3008L7.79993 79.5008L13.7 85.4008C14 85.7008 14.4 86.1008 14.7 86.4008C20.1 91.2008 27.4999 93.7008 36.7999 93.7008C43.6999 93.7008 49.7999 92.3008 55.2999 89.6008C60.6999 86.9008 65 83.0008 68.2 77.8008C71.2999 72.6008 72.9 66.8008 72.9 60.1008C72.9 52.8008 70.5999 46.9008 65.9999 42.4008C61.3999 38.0008 55.4 35.8008 48.2 35.8008C42.7 35.8008 37.7 37.3008 33.2 40.2008L35.9 27.0008H74.2999V26.9008Z" fill="url(#paint5_linear_2997_54558)"/>
<path d="M71.5 3.80078L68.5 21.1008H30.2L27.5 34.3008C32 31.3008 37 29.9008 42.5 29.9008C49.8 29.9008 55.7 32.1008 60.3 36.5008C64.9 41.0008 67.2 46.8008 67.2 54.2008C67.2 60.9008 65.6 66.7008 62.5 71.9008C59.3 77.1008 55 81.0008 49.6 83.7008C44.1 86.4008 38 87.8008 31.1 87.8008C21.7 87.8008 14.4 85.4008 9 80.5008C3.6 75.7008 0.900024 69.5008 0.900024 62.0008C0.900024 61.4008 1 60.1008 1 59.9008H21.6V60.5008C21.6 63.7008 22.6 66.3008 24.7 68.2008C26.8 70.2008 29.3 71.2008 32.3 71.2008C36.5 71.2008 39.9 69.7008 42.4 66.8008C44.9 63.9008 46.2 60.2008 46.2 55.8008C46.2 52.9008 45.3 50.5008 43.4 48.7008C41.5 46.9008 39.2 46.0008 36.3 46.0008C31.2 46.0008 26.4 48.5008 23.6 54.1008L3.20001 53.3008L14 3.80078H71.5Z" fill="white"/>
<defs>
<linearGradient id="paint0_linear_2997_54558" x1="83.9424" y1="49.0201" x2="158.921" y2="49.0201" gradientUnits="userSpaceOnUse">
<stop stop-color="#FFB500"/>
<stop offset="0.1706" stop-color="#FFAC00"/>
<stop offset="0.4453" stop-color="#FF9500"/>
<stop offset="0.7878" stop-color="#FF6E00"/>
<stop offset="0.9707" stop-color="#FF5700"/>
</linearGradient>
<linearGradient id="paint1_linear_2997_54558" x1="51.3101" y1="131.935" x2="204.968" y2="128.612" gradientUnits="userSpaceOnUse">
<stop stop-color="#FFB500"/>
<stop offset="0.1706" stop-color="#FFAC00"/>
<stop offset="0.4453" stop-color="#FF9500"/>
<stop offset="0.7878" stop-color="#FF6E00"/>
<stop offset="0.9707" stop-color="#FF5700"/>
</linearGradient>
<linearGradient id="paint2_linear_2997_54558" x1="177.787" y1="28.286" x2="219.035" y2="28.286" gradientUnits="userSpaceOnUse">
<stop stop-color="#FFB500"/>
<stop offset="0.1706" stop-color="#FFAC00"/>
<stop offset="0.4453" stop-color="#FF9500"/>
<stop offset="0.7878" stop-color="#FF6E00"/>
<stop offset="0.9707" stop-color="#FF5700"/>
</linearGradient>
<linearGradient id="paint3_linear_2997_54558" x1="225.642" y1="68.0856" x2="266.891" y2="68.0856" gradientUnits="userSpaceOnUse">
<stop stop-color="#FFB500"/>
<stop offset="0.1706" stop-color="#FFAC00"/>
<stop offset="0.4453" stop-color="#FF9500"/>
<stop offset="0.7878" stop-color="#FF6E00"/>
<stop offset="0.9707" stop-color="#FF5700"/>
</linearGradient>
<linearGradient id="paint4_linear_2997_54558" x1="174.621" y1="45.7708" x2="265.118" y2="45.7708" gradientUnits="userSpaceOnUse">
<stop stop-color="#FFB500"/>
<stop offset="0.1706" stop-color="#FFAC00"/>
<stop offset="0.4453" stop-color="#FF9500"/>
<stop offset="0.7878" stop-color="#FF6E00"/>
<stop offset="0.9707" stop-color="#FF5700"/>
</linearGradient>
<linearGradient id="paint5_linear_2997_54558" x1="3.18525" y1="48.7137" x2="77.288" y2="48.7137" gradientUnits="userSpaceOnUse">
<stop stop-color="#FFB500"/>
<stop offset="0.1706" stop-color="#FFAC00"/>
<stop offset="0.4453" stop-color="#FF9500"/>
<stop offset="0.7878" stop-color="#FF6E00"/>
<stop offset="0.9707" stop-color="#FF5700"/>
</linearGradient>
</defs>
</svg>
