<svg width="48" height="48" viewBox="0 0 48 48" fill="none" xmlns="http://www.w3.org/2000/svg">
<g clip-path="url(#clip0_1155_51848)">
<path d="M47 4H13C12.448 4 12 4.44803 12 5.00003C12 5.55203 12.448 5.99997 13 5.99997H47.0001C47.552 5.99997 48 5.55194 48 4.99994C48 4.44794 47.552 4 47 4Z" fill="#4E6575"/>
<path d="M33 10H13C12.448 10 12 10.448 12 11C12 11.552 12.448 12 13 12H33C33.552 12 34 11.5519 34 10.9999C34 10.4479 33.552 10 33 10Z" fill="#4E6575"/>
<path d="M47 20H13C12.448 20 12 20.448 12 21C12 21.552 12.448 22.0001 13 22.0001H47.0001C47.5521 22.0001 48.0001 21.552 48.0001 21C48.0001 20.448 47.552 20 47 20Z" fill="#4E6575"/>
<path d="M33 26H13C12.448 26 12 26.448 12 27C12 27.552 12.448 28.0001 13 28.0001H33C33.552 28.0001 34 27.552 34 27C34 26.448 33.552 26 33 26Z" fill="#4E6575"/>
<path d="M47 36H13C12.448 36 12 36.448 12 37C12 37.552 12.448 38.0001 13 38.0001H47.0001C47.5521 38.0001 48.0001 37.552 48.0001 37C48.0001 36.448 47.552 36 47 36Z" fill="#4E6575"/>
<path d="M33 42H13C12.448 42 12 42.448 12 43C12 43.552 12.448 44.0001 13 44.0001H33C33.552 44.0001 34 43.552 34 43C34 42.448 33.552 42 33 42Z" fill="#4E6575"/>
<path d="M4.00003 4C1.794 4 0 5.794 0 7.99994C0 10.206 1.794 12 4.00003 12C6.20606 12 8.00006 10.206 8.00006 7.99994C7.99997 5.794 6.20597 4 4.00003 4ZM4.00003 10C2.89603 10 2.00006 9.10197 2.00006 8.00003C1.99997 6.898 2.89603 5.99997 4.00003 5.99997C5.10403 5.99997 6 6.898 6 7.99994C6 9.10197 5.10403 10 4.00003 10Z" fill="#4E6575"/>
<path d="M4.00003 20C1.794 20 0 21.794 0 24C0 26.2061 1.794 28.0001 4.00003 28.0001C6.20606 28.0001 8.00006 26.2061 8.00006 24C8.00006 21.794 6.20597 20 4.00003 20ZM4.00003 26C2.89603 26 2.00006 25.102 2.00006 24C2.00006 22.898 2.89603 22.0001 4.00003 22.0001C5.10403 22.0001 6 22.898 6 24C6 25.1021 5.10403 26 4.00003 26Z" fill="#4E6575"/>
<circle cx="4" cy="24" r="2" fill="#EBEDEE"/>
<path d="M4.00003 36C1.794 36 0 37.794 0 40C0 42.2061 1.794 44.0001 4.00003 44.0001C6.20606 44.0001 8.00006 42.2061 8.00006 40C8.00006 37.794 6.20597 36 4.00003 36ZM4.00003 42C2.89603 42 2.00006 41.102 2.00006 40C2.00006 38.8981 2.89603 38.0001 4.00003 38.0001C5.10403 38.0001 6 38.898 6 40C6 41.1021 5.10403 42 4.00003 42Z" fill="#4E6575"/>
<circle cx="4" cy="40" r="2" fill="#EBEDEE"/>
<circle cx="4" cy="8" r="2" fill="#EBEDEE"/>
</g>
<defs>
<clipPath id="clip0_1155_51848">
<rect width="48" height="48" fill="white"/>
</clipPath>
</defs>
</svg>
