<svg width="52" height="40" viewBox="0 0 52 40" fill="none" xmlns="http://www.w3.org/2000/svg">
<path d="M7.13672 5.21484H44.8622V28.6658H7.13672V5.21484Z" fill="#607987" fill-opacity="0.1"/>
<path d="M22.6857 22.2378L30.3327 17.8227C31.0103 17.4316 31.013 16.4494 30.3327 16.0567L22.6857 11.6416C22.0074 11.25 21.1562 11.7401 21.1562 12.5246V21.3548C21.1562 22.1397 22.0089 22.6287 22.6857 22.2378ZM23.1955 14.2907L27.7837 16.9397L23.1955 19.5888V14.2907Z" fill="#4E6575"/>
<path d="M50.9804 31.725H49.9608V4.19562C49.9608 1.94677 48.1312 0.117188 45.8824 0.117188H6.11765C3.8688 0.117188 2.03922 1.94677 2.03922 4.19562V31.725H1.01961C0.456478 31.725 0 32.1816 0 32.7446V35.8035C0 38.0523 1.82958 39.8819 4.07843 39.8819H47.9216C50.1704 39.8819 52 38.0523 52 35.8035V32.7446C52 32.1816 51.5435 31.725 50.9804 31.725ZM4.07843 4.19562C4.07843 3.0712 4.99322 2.1564 6.11765 2.1564H45.8824C47.0068 2.1564 47.9216 3.0712 47.9216 4.19562V31.725H31.6077C31.3373 31.725 31.078 31.8325 30.8868 32.0237L29.1463 33.7642H22.8537L21.1131 32.0237C20.9219 31.8325 20.6626 31.725 20.3922 31.725H4.07843V4.19562ZM49.9608 35.8035C49.9608 36.9279 49.046 37.8427 47.9216 37.8427H4.07843C2.95401 37.8427 2.03922 36.9279 2.03922 35.8035V33.7642H19.9698L21.7104 35.5048C21.9016 35.696 22.161 35.8035 22.4314 35.8035H29.5686C29.839 35.8035 30.0984 35.696 30.2896 35.5048L32.0302 33.7642H49.9608V35.8035Z" fill="#4E6575"/>
</svg>
