<svg width="43" height="43" viewBox="0 0 43 43" fill="none" xmlns="http://www.w3.org/2000/svg">
<g clip-path="url(#clip0_1155_51801)">
<path d="M14.3324 21.0804H6.74414V13.4922H14.3324V21.0804Z" fill="#607987" fill-opacity="0.1"/>
<path d="M14.3324 39.6312H6.74414V32.043H14.3324V39.6312Z" fill="#607987" fill-opacity="0.1"/>
<path d="M25.2932 30.3539H17.705V22.7656H25.2932V30.3539Z" fill="#607987" fill-opacity="0.1"/>
<path d="M36.2543 21.0804H28.666V13.4922H36.2543V21.0804Z" fill="#607987" fill-opacity="0.1"/>
<path d="M39.6275 2.52941H35.8333V0.843137C35.8333 0.377473 35.4558 0 34.9902 0C34.5246 0 34.1471 0.377473 34.1471 0.843137V2.52941H29.0882V0.843137C29.0882 0.377473 28.7107 0 28.2451 0C27.7795 0 27.402 0.377473 27.402 0.843137V2.52941H22.3431V0.843137C22.3431 0.377473 21.9656 0 21.5 0C21.0343 0 20.6569 0.377473 20.6569 0.843137V2.52941H15.598V0.843137C15.598 0.377473 15.2206 0 14.7549 0C14.2892 0 13.9118 0.377473 13.9118 0.843137V2.52941H8.85294V0.843137C8.85294 0.377473 8.47538 0 8.0098 0C7.54422 0 7.16667 0.377473 7.16667 0.843137V2.52941H3.37255C1.51293 2.52941 0 4.04234 0 5.90196V39.6275C0 41.4871 1.51293 43 3.37255 43H39.6275C41.4871 43 43 41.4871 43 39.6275C43 37.8161 43 7.41033 43 5.90196C43 4.04234 41.4871 2.52941 39.6275 2.52941ZM1.68627 5.90196C1.68627 4.97215 2.44274 4.21569 3.37255 4.21569H7.16667V5.90196C7.16667 6.36754 7.54422 6.7451 8.0098 6.7451C8.47538 6.7451 8.85294 6.36754 8.85294 5.90196V4.21569H13.9118V5.90196C13.9118 6.36754 14.2892 6.7451 14.7549 6.7451C15.2206 6.7451 15.598 6.36754 15.598 5.90196V4.21569H20.6569V5.90196C20.6569 6.36754 21.0343 6.7451 21.5 6.7451C21.9656 6.7451 22.3431 6.36754 22.3431 5.90196V4.21569H27.402V5.90196C27.402 6.36754 27.7795 6.7451 28.2451 6.7451C28.7107 6.7451 29.0882 6.36754 29.0882 5.90196V4.21569H34.1471V5.90196C34.1471 6.36754 34.5246 6.7451 34.9902 6.7451C35.4558 6.7451 35.8333 6.36754 35.8333 5.90196V4.21569H39.6275C40.5573 4.21569 41.3137 4.97215 41.3137 5.90196V10.1176H1.68627V5.90196ZM39.6275 41.3137H3.37255C2.44274 41.3137 1.68627 40.5573 1.68627 39.6275V11.8039H41.3137V39.6275C41.3137 40.5573 40.5573 41.3137 39.6275 41.3137Z" fill="#4E6575"/>
<path d="M13.4892 22.7656H7.58728C7.1217 22.7656 6.74414 23.1432 6.74414 23.6088V29.5107C6.74414 29.9763 7.1217 30.3539 7.58728 30.3539H13.4892C13.9549 30.3539 14.3324 29.9763 14.3324 29.5107V23.6088C14.3324 23.1432 13.9549 22.7656 13.4892 22.7656ZM12.6461 28.6676H8.43042V24.4519H12.6461V28.6676Z" fill="#4E6575"/>
<path d="M24.4502 13.4922H18.5482C18.0826 13.4922 17.7051 13.8697 17.7051 14.3353V20.2373C17.7051 20.703 18.0826 21.0804 18.5482 21.0804H24.4502C24.9158 21.0804 25.2933 20.703 25.2933 20.2373V14.3353C25.2933 13.8697 24.9158 13.4922 24.4502 13.4922ZM23.607 19.3941H19.3914V15.1785H23.607V19.3941Z" fill="#4E6575"/>
<path d="M24.4502 32.0391H18.5482C18.0826 32.0391 17.7051 32.4166 17.7051 32.8822V38.7842C17.7051 39.2497 18.0826 39.6273 18.5482 39.6273H24.4502C24.9158 39.6273 25.2933 39.2497 25.2933 38.7842V32.8822C25.2933 32.4166 24.9158 32.0391 24.4502 32.0391ZM23.607 37.941H19.3914V33.7253H23.607V37.941Z" fill="#4E6575"/>
<path d="M29.5092 30.3539H35.4111C35.8767 30.3539 36.2543 29.9763 36.2543 29.5107V23.6088C36.2543 23.1432 35.8767 22.7656 35.4111 22.7656H29.5092C29.0436 22.7656 28.666 23.1432 28.666 23.6088V29.5107C28.666 29.9763 29.0436 30.3539 29.5092 30.3539ZM30.3523 24.4519H34.568V28.6676H30.3523V24.4519Z" fill="#4E6575"/>
<path d="M34.815 33.9735L31.1955 37.5929L30.1054 36.5028C29.7761 36.1737 29.2424 36.1737 28.9129 36.5028C28.5837 36.8321 28.5837 37.366 28.9129 37.6953L30.5992 39.3816C30.9286 39.7108 31.4623 39.7107 31.7917 39.3816L36.0074 35.1659C36.3366 34.8366 36.3366 34.3028 36.0074 33.9734C35.678 33.6443 35.1443 33.6443 34.815 33.9735Z" fill="#4E6575"/>
</g>
<defs>
<clipPath id="clip0_1155_51801">
<rect width="43" height="43" fill="white"/>
</clipPath>
</defs>
</svg>
