<svg width="48" height="48" viewBox="0 0 48 48" fill="none" xmlns="http://www.w3.org/2000/svg">
<g clip-path="url(#clip0_1155_51823)">
<path d="M22.5 37.125H40.5C41.0177 37.125 41.4375 36.7052 41.4375 36.1875C41.4375 35.6697 41.0177 35.25 40.5 35.25H22.5C21.9822 35.25 21.5625 35.6697 21.5625 36.1875C21.5625 36.7053 21.9822 37.125 22.5 37.125Z" fill="#4E6575"/>
<path d="M22.5 33.375H40.5C41.0177 33.375 41.4375 32.9552 41.4375 32.4375C41.4375 31.9197 41.0177 31.5 40.5 31.5H22.5C21.9822 31.5 21.5625 31.9197 21.5625 32.4375C21.5625 32.9553 21.9822 33.375 22.5 33.375Z" fill="#4E6575"/>
<path d="M22.5 40.875H40.5C41.0177 40.875 41.4375 40.4552 41.4375 39.9375C41.4375 39.4197 41.0177 39 40.5 39H22.5C21.9822 39 21.5625 39.4197 21.5625 39.9375C21.5625 40.4553 21.9822 40.875 22.5 40.875Z" fill="#4E6575"/>
<path d="M43.1945 27.2948C43.0292 26.9971 42.7155 26.8125 42.375 26.8125H17.8125C17.2947 26.8125 16.875 27.2322 16.875 27.75C16.875 28.2677 17.2947 28.6875 17.8125 28.6875H41.8234L45.99 36.1875L41.8234 43.6875H1.875V28.6875H4.6875C5.20519 28.6875 5.625 28.2677 5.625 27.75C5.625 27.2322 5.20519 26.8125 4.6875 26.8125H0.9375C0.419719 26.8125 0 27.2322 0 27.75V44.625C0 45.1427 0.419719 45.5625 0.9375 45.5625H42.375C42.7155 45.5625 43.0292 45.3779 43.1945 45.0802L47.882 36.6427C48.0394 36.3595 48.0394 36.0154 47.882 35.7322L43.1945 27.2948Z" fill="#4E6575"/>
<path d="M22.5 13.6875H40.5C41.0177 13.6875 41.4375 13.2678 41.4375 12.75C41.4375 12.2323 41.0177 11.8125 40.5 11.8125H22.5C21.9822 11.8125 21.5625 12.2323 21.5625 12.75C21.5625 13.2678 21.9822 13.6875 22.5 13.6875Z" fill="#4E6575"/>
<path d="M22.5 9.9375H40.5C41.0177 9.9375 41.4375 9.51769 41.4375 9C41.4375 8.48231 41.0177 8.0625 40.5 8.0625H22.5C21.9822 8.0625 21.5625 8.48231 21.5625 9C21.5625 9.51769 21.9822 9.9375 22.5 9.9375Z" fill="#4E6575"/>
<path d="M22.5 17.4375H40.5C41.0177 17.4375 41.4375 17.0178 41.4375 16.5C41.4375 15.9823 41.0177 15.5625 40.5 15.5625H22.5C21.9822 15.5625 21.5625 15.9823 21.5625 16.5C21.5625 17.0178 21.9822 17.4375 22.5 17.4375Z" fill="#4E6575"/>
<path d="M0.9375 22.125H42.375C42.7155 22.125 43.0292 21.9404 43.1945 21.6427L47.882 13.2052C48.0394 12.9221 48.0394 12.5779 47.882 12.2947L43.1945 3.85716C43.0292 3.55959 42.7155 3.375 42.375 3.375H17.8125C17.2947 3.375 16.875 3.79481 16.875 4.3125C16.875 4.83019 17.2947 5.25 17.8125 5.25H41.8234L45.99 12.75L41.8234 20.25H1.875V5.25H4.6875C5.20519 5.25 5.625 4.83028 5.625 4.3125C5.625 3.79472 5.20519 3.375 4.6875 3.375H0.9375C0.419719 3.375 0 3.79481 0 4.3125V21.1875C0 21.7053 0.419719 22.125 0.9375 22.125Z" fill="#4E6575"/>
<path d="M4.6875 25.875H17.8125V40.875H4.6875V25.875Z" fill="#607987" fill-opacity="0.1"/>
<path d="M4.6875 2.4375H17.8125V17.4375H4.6875V2.4375Z" fill="#607987" fill-opacity="0.1"/>
<path d="M13.125 34.3125C13.6427 34.3125 14.0625 33.8927 14.0625 33.375V29.625C14.0625 29.1072 13.6427 28.6875 13.125 28.6875H9.375C8.85731 28.6875 8.4375 29.1072 8.4375 29.625C8.4375 30.1427 8.85731 30.5625 9.375 30.5625H12.1875V32.4375H9.375C8.85731 32.4375 8.4375 32.8572 8.4375 33.375V37.125C8.4375 37.6427 8.85731 38.0625 9.375 38.0625H13.125C13.6427 38.0625 14.0625 37.6427 14.0625 37.125C14.0625 36.6072 13.6427 36.1875 13.125 36.1875H10.3125V34.3125H13.125Z" fill="#4E6575"/>
<path d="M10.0379 8.72537L10.3125 8.45087V12.75H9.375C8.85731 12.75 8.4375 13.1698 8.4375 13.6875C8.4375 14.2052 8.85731 14.625 9.375 14.625H13.125C13.6427 14.625 14.0625 14.2052 14.0625 13.6875C14.0625 13.1698 13.6427 12.75 13.125 12.75H12.1875V6.18747C12.1875 5.80825 11.959 5.46643 11.6088 5.32131C11.2584 5.17637 10.8551 5.25643 10.5871 5.52456L8.71209 7.39956C8.346 7.76565 8.346 8.35928 8.71209 8.72547C9.07828 9.09147 9.67172 9.09147 10.0379 8.72537Z" fill="#4E6575"/>
</g>
<defs>
<clipPath id="clip0_1155_51823">
<rect width="48" height="48" fill="white"/>
</clipPath>
</defs>
</svg>
