<svg width="66" height="66" viewBox="0 0 66 66" fill="none" xmlns="http://www.w3.org/2000/svg">
<g filter="url(#filter0_d_1155_51737)">
<circle cx="33" cy="29" r="24" fill="url(#paint0_linear_1155_51737)" shape-rendering="crispEdges"/>
</g>
<path d="M12.952 28.456H17.008V29.912H12.952V28.456ZM25.5051 32.376C25.6918 32.376 25.8385 32.432 25.9451 32.544C26.0518 32.6507 26.1051 32.7893 26.1051 32.96V34H18.3131V33.416C18.3131 33.2987 18.3371 33.176 18.3851 33.048C18.4331 32.92 18.5105 32.8027 18.6171 32.696L22.2011 29.104C22.5051 28.8 22.7745 28.5093 23.0091 28.232C23.2491 27.9547 23.4518 27.6773 23.6171 27.4C23.7878 27.1227 23.9158 26.8427 24.0011 26.56C24.0918 26.272 24.1371 25.9707 24.1371 25.656C24.1371 25.352 24.0891 25.0853 23.9931 24.856C23.9025 24.6213 23.7745 24.4293 23.6091 24.28C23.4491 24.1253 23.2545 24.0107 23.0251 23.936C22.8011 23.856 22.5531 23.816 22.2811 23.816C22.0198 23.816 21.7771 23.8533 21.5531 23.928C21.3345 24.0027 21.1371 24.1067 20.9611 24.24C20.7905 24.3733 20.6465 24.5333 20.5291 24.72C20.4171 24.9013 20.3345 25.1013 20.2811 25.32C20.2011 25.5387 20.0971 25.6853 19.9691 25.76C19.8465 25.8347 19.6651 25.8507 19.4251 25.808L18.5211 25.648C18.6011 25.104 18.7505 24.6267 18.9691 24.216C19.1931 23.8053 19.4731 23.464 19.8091 23.192C20.1451 22.9147 20.5291 22.7067 20.9611 22.568C21.3985 22.424 21.8705 22.352 22.3771 22.352C22.8891 22.352 23.3585 22.4293 23.7851 22.584C24.2171 22.7333 24.5878 22.9493 24.8971 23.232C25.2118 23.5093 25.4571 23.848 25.6331 24.248C25.8091 24.648 25.8971 25.0987 25.8971 25.6C25.8971 26.0267 25.8331 26.4213 25.7051 26.784C25.5825 27.1467 25.4145 27.4933 25.2011 27.824C24.9878 28.1547 24.7371 28.4773 24.4491 28.792C24.1665 29.1013 23.8678 29.416 23.5531 29.736L20.7691 32.584C20.9985 32.52 21.2278 32.4693 21.4571 32.432C21.6918 32.3947 21.9131 32.376 22.1211 32.376H25.5051ZM35.4344 28.24C35.4344 29.248 35.325 30.12 35.1064 30.856C34.893 31.592 34.597 32.2027 34.2184 32.688C33.8397 33.1733 33.3944 33.5333 32.8824 33.768C32.3704 34.0027 31.8184 34.12 31.2264 34.12C30.6344 34.12 30.0824 34.0027 29.5704 33.768C29.0584 33.5333 28.613 33.1733 28.2344 32.688C27.861 32.2027 27.5677 31.592 27.3544 30.856C27.141 30.12 27.0344 29.248 27.0344 28.24C27.0344 27.232 27.141 26.36 27.3544 25.624C27.5677 24.8827 27.861 24.272 28.2344 23.792C28.613 23.3067 29.0584 22.9467 29.5704 22.712C30.0824 22.472 30.6344 22.352 31.2264 22.352C31.8184 22.352 32.3704 22.472 32.8824 22.712C33.3944 22.9467 33.8397 23.3067 34.2184 23.792C34.597 24.272 34.893 24.8827 35.1064 25.624C35.325 26.36 35.4344 27.232 35.4344 28.24ZM33.6584 28.24C33.6584 27.3867 33.589 26.6773 33.4504 26.112C33.317 25.5413 33.1384 25.0853 32.9144 24.744C32.6904 24.4027 32.4317 24.16 32.1384 24.016C31.845 23.872 31.541 23.8 31.2264 23.8C30.9064 23.8 30.5997 23.872 30.3064 24.016C30.0184 24.16 29.7624 24.4027 29.5384 24.744C29.3144 25.0853 29.1357 25.5413 29.0024 26.112C28.869 26.6773 28.8024 27.3867 28.8024 28.24C28.8024 29.0933 28.869 29.8053 29.0024 30.376C29.1357 30.9413 29.3144 31.3947 29.5384 31.736C29.7624 32.0773 30.0184 32.32 30.3064 32.464C30.5997 32.608 30.9064 32.68 31.2264 32.68C31.541 32.68 31.845 32.608 32.1384 32.464C32.4317 32.32 32.6904 32.0773 32.9144 31.736C33.1384 31.3947 33.317 30.9413 33.4504 30.376C33.589 29.8053 33.6584 29.0933 33.6584 28.24ZM41.4276 25.264C41.4276 25.7067 41.3556 26.104 41.2116 26.456C41.073 26.808 40.8836 27.1093 40.6436 27.36C40.4036 27.6053 40.1263 27.7947 39.8116 27.928C39.497 28.056 39.1663 28.12 38.8196 28.12C38.4463 28.12 38.0996 28.056 37.7796 27.928C37.465 27.7947 37.1903 27.6053 36.9556 27.36C36.7263 27.1093 36.545 26.808 36.4116 26.456C36.2783 26.104 36.2116 25.7067 36.2116 25.264C36.2116 24.8107 36.2783 24.4053 36.4116 24.048C36.545 23.6853 36.7263 23.3813 36.9556 23.136C37.1903 22.8853 37.465 22.6933 37.7796 22.56C38.0996 22.4267 38.4463 22.36 38.8196 22.36C39.193 22.36 39.537 22.4267 39.8516 22.56C40.1716 22.6933 40.4463 22.8853 40.6756 23.136C40.9103 23.3813 41.0943 23.6853 41.2276 24.048C41.361 24.4053 41.4276 24.8107 41.4276 25.264ZM40.0996 25.264C40.0996 24.9387 40.065 24.664 39.9956 24.44C39.9316 24.2107 39.841 24.0267 39.7236 23.888C39.6116 23.744 39.4756 23.6427 39.3156 23.584C39.161 23.52 38.9956 23.488 38.8196 23.488C38.6383 23.488 38.4703 23.52 38.3156 23.584C38.161 23.6427 38.0276 23.744 37.9156 23.888C37.8036 24.0267 37.7156 24.2107 37.6516 24.44C37.5876 24.664 37.5556 24.9387 37.5556 25.264C37.5556 25.584 37.5876 25.8533 37.6516 26.072C37.7156 26.2907 37.8036 26.4693 37.9156 26.608C38.0276 26.7413 38.161 26.8373 38.3156 26.896C38.4703 26.9547 38.6383 26.984 38.8196 26.984C38.9956 26.984 39.161 26.9547 39.3156 26.896C39.4756 26.8373 39.6116 26.7413 39.7236 26.608C39.841 26.4693 39.9316 26.2907 39.9956 26.072C40.065 25.8533 40.0996 25.584 40.0996 25.264ZM45.3796 22.76C45.4383 22.6853 45.5076 22.6213 45.5876 22.568C45.673 22.5093 45.7903 22.48 45.9396 22.48H47.1796L38.6916 33.736C38.633 33.8107 38.561 33.8747 38.4756 33.928C38.3903 33.976 38.2863 34 38.1636 34H36.8836L45.3796 22.76ZM47.8756 31.288C47.8756 31.7307 47.8036 32.128 47.6596 32.48C47.5156 32.832 47.3236 33.1307 47.0836 33.376C46.8436 33.6213 46.5663 33.8107 46.2516 33.944C45.937 34.072 45.6063 34.136 45.2596 34.136C44.8863 34.136 44.5396 34.072 44.2196 33.944C43.905 33.8107 43.6303 33.6213 43.3956 33.376C43.1663 33.1307 42.985 32.832 42.8516 32.48C42.7236 32.128 42.6596 31.7307 42.6596 31.288C42.6596 30.8347 42.7236 30.4293 42.8516 30.072C42.985 29.7093 43.1663 29.4027 43.3956 29.152C43.6303 28.9013 43.905 28.712 44.2196 28.584C44.5396 28.4507 44.8863 28.384 45.2596 28.384C45.633 28.384 45.9796 28.4507 46.2996 28.584C46.6196 28.712 46.8943 28.9013 47.1236 29.152C47.3583 29.4027 47.5423 29.7093 47.6756 30.072C47.809 30.4293 47.8756 30.8347 47.8756 31.288ZM46.5476 31.288C46.5476 30.9627 46.513 30.688 46.4436 30.464C46.3796 30.2347 46.289 30.0507 46.1716 29.912C46.0543 29.768 45.9156 29.6667 45.7556 29.608C45.601 29.544 45.4356 29.512 45.2596 29.512C45.0836 29.512 44.9183 29.544 44.7636 29.608C44.609 29.6667 44.473 29.768 44.3556 29.912C44.2436 30.0507 44.1556 30.2347 44.0916 30.464C44.0276 30.688 43.9956 30.9627 43.9956 31.288C43.9956 31.608 44.0276 31.8773 44.0916 32.096C44.1556 32.3147 44.2436 32.4933 44.3556 32.632C44.473 32.7653 44.609 32.8613 44.7636 32.92C44.9183 32.9787 45.0836 33.008 45.2596 33.008C45.4356 33.008 45.601 32.9787 45.7556 32.92C45.9156 32.8613 46.0543 32.7653 46.1716 32.632C46.289 32.4933 46.3796 32.3147 46.4436 32.096C46.513 31.8773 46.5476 31.608 46.5476 31.288Z" fill="white"/>
<defs>
<filter id="filter0_d_1155_51737" x="0" y="0" width="66" height="66" filterUnits="userSpaceOnUse" color-interpolation-filters="sRGB">
<feFlood flood-opacity="0" result="BackgroundImageFix"/>
<feColorMatrix in="SourceAlpha" type="matrix" values="0 0 0 0 0 0 0 0 0 0 0 0 0 0 0 0 0 0 127 0" result="hardAlpha"/>
<feMorphology radius="3" operator="dilate" in="SourceAlpha" result="effect1_dropShadow_1155_51737"/>
<feOffset dy="4"/>
<feGaussianBlur stdDeviation="3"/>
<feComposite in2="hardAlpha" operator="out"/>
<feColorMatrix type="matrix" values="0 0 0 0 0 0 0 0 0 0 0 0 0 0 0 0 0 0 0.1 0"/>
<feBlend mode="normal" in2="BackgroundImageFix" result="effect1_dropShadow_1155_51737"/>
<feBlend mode="normal" in="SourceGraphic" in2="effect1_dropShadow_1155_51737" result="shape"/>
</filter>
<linearGradient id="paint0_linear_1155_51737" x1="47.5" y1="5" x2="33" y2="53" gradientUnits="userSpaceOnUse">
<stop stop-color="#8AEE0B"/>
<stop offset="0.0001" stop-color="#CC6B00"/>
<stop offset="1" stop-color="#F86161" stop-opacity="0.84"/>
</linearGradient>
</defs>
</svg>
