<svg width="24" height="24" viewBox="0 0 24 24" fill="none" xmlns="http://www.w3.org/2000/svg">
<path d="M12 24C18.6274 24 24 18.6274 24 12C24 5.37258 18.6274 0 12 0C5.37258 0 0 5.37258 0 12C0 18.6274 5.37258 24 12 24Z" fill="#BA8D5B"/>
<path d="M14.5486 5.33203H9.45522C7.18322 5.33203 5.33789 7.17736 5.33789 9.44936V14.5427C5.33789 16.8147 7.18322 18.66 9.45522 18.66H14.5486C16.8206 18.66 18.6659 16.8147 18.6659 14.5427V9.44936C18.6659 7.17736 16.8206 5.33203 14.5486 5.33203ZM17.1779 14.548C17.1779 15.9987 15.9992 17.1827 14.5432 17.1827H9.44989C7.99922 17.1827 6.81522 16.004 6.81522 14.548V9.4547C6.81522 8.00403 7.99389 6.82003 9.44989 6.82003H14.5432C15.9939 6.82003 17.1779 7.9987 17.1779 9.4547V14.548Z" fill="white"/>
<path d="M11.9998 8.58984C10.1225 8.58984 8.5918 10.1205 8.5918 11.9978C8.5918 13.8752 10.1225 15.4058 11.9998 15.4058C13.8771 15.4058 15.4078 13.8752 15.4078 11.9978C15.4078 10.1205 13.8771 8.58984 11.9998 8.58984ZM11.9998 14.0672C10.8585 14.0672 9.93046 13.1392 9.93046 11.9978C9.93046 10.8565 10.8585 9.92851 11.9998 9.92851C13.1411 9.92851 14.0691 10.8565 14.0691 11.9978C14.0691 13.1392 13.1411 14.0672 11.9998 14.0672Z" fill="white"/>
<path d="M15.6669 8.96283C15.9809 8.91193 16.1941 8.61614 16.1432 8.30216C16.0923 7.98818 15.7966 7.77491 15.4826 7.82581C15.1686 7.87671 14.9553 8.1725 15.0062 8.48648C15.0571 8.80046 15.3529 9.01373 15.6669 8.96283Z" fill="white"/>
</svg>
