<svg width="24" height="24" viewBox="0 0 24 24" fill="none" xmlns="http://www.w3.org/2000/svg">
<path d="M0 12C0 5.37258 5.37258 0 12 0C18.6274 0 24 5.37258 24 12C24 18.6274 18.6274 24 12 24C5.37258 24 0 18.6274 0 12Z" fill="#BA8D5B"/>
<path fill-rule="evenodd" clip-rule="evenodd" d="M8.66094 7.41135C8.66094 8.1959 8.07039 8.82367 7.12216 8.82367H7.10478C6.19179 8.82367 5.60156 8.1959 5.60156 7.41135C5.60156 6.6102 6.20977 6 7.14008 6C8.07039 6 8.64329 6.6102 8.66094 7.41135ZM8.48118 9.9375V18.1084H5.76172V9.9375H8.48118ZM18.2903 18.1088L18.2904 13.4239C18.2904 10.9142 16.9488 9.74609 15.1593 9.74609C13.7154 9.74609 13.069 10.5392 12.7081 11.0955V9.93818H9.98828C10.0241 10.7049 9.98828 18.109 9.98828 18.109H12.7081V13.5458C12.7081 13.3016 12.7257 13.058 12.7976 12.8831C12.9942 12.3953 13.4417 11.8902 14.193 11.8902C15.1774 11.8902 15.571 12.6394 15.571 13.7374V18.1088H18.2903Z" fill="white"/>
</svg>
