<svg width="20" height="20" viewBox="0 0 20 20" fill="none" xmlns="http://www.w3.org/2000/svg">
<path d="M20 10C20 15.5228 15.5228 20 10 20C4.47715 20 0 15.5228 0 10C0 4.47715 4.47715 0 10 0C15.5228 0 20 4.47715 20 10ZM3 10C3 13.866 6.13401 17 10 17C13.866 17 17 13.866 17 10C17 6.13401 13.866 3 10 3C6.13401 3 3 6.13401 3 10Z" fill="black" fill-opacity="0.1"/>
<path d="M10.0001 5.41797C9.44775 5.41863 8.91823 5.63834 8.52767 6.02889C8.13712 6.41945 7.91741 6.94897 7.91675 7.5013V8.65339C7.37764 9.08502 6.98591 9.67343 6.79569 10.3373C6.60547 11.0012 6.62615 11.7078 6.85487 12.3594C7.08359 13.0111 7.50907 13.5756 8.07249 13.9749C8.63592 14.3743 9.30947 14.5888 10.0001 14.5888C10.6907 14.5888 11.3642 14.3743 11.9277 13.9749C12.4911 13.5756 12.9166 13.0111 13.1453 12.3594C13.374 11.7078 13.3947 11.0012 13.2045 10.3373C13.0143 9.67343 12.6225 9.08502 12.0834 8.65339V7.5013C12.0828 6.94897 11.863 6.41945 11.4725 6.02889C11.0819 5.63834 10.5524 5.41863 10.0001 5.41797ZM8.75008 7.5013C8.75008 7.16978 8.88178 6.85184 9.1162 6.61742C9.35062 6.383 9.66856 6.2513 10.0001 6.2513C10.3316 6.2513 10.6495 6.383 10.884 6.61742C11.1184 6.85184 11.2501 7.16978 11.2501 7.5013V8.16339C10.4489 7.83618 9.5513 7.83618 8.75008 8.16339V7.5013ZM12.5001 11.2513C12.5001 11.7458 12.3535 12.2291 12.0788 12.6402C11.8041 13.0514 11.4136 13.3718 10.9568 13.561C10.5 13.7502 9.99731 13.7997 9.51236 13.7033C9.0274 13.6068 8.58195 13.3687 8.23231 13.0191C7.88268 12.6694 7.64458 12.224 7.54812 11.739C7.45166 11.2541 7.50116 10.7514 7.69038 10.2946C7.8796 9.83778 8.20003 9.44733 8.61116 9.17263C9.02228 8.89792 9.50563 8.7513 10.0001 8.7513C10.6629 8.75196 11.2984 9.01557 11.7671 9.48427C12.2358 9.95296 12.4994 10.5885 12.5001 11.2513ZM10.8334 10.8346C10.833 10.9803 10.7943 11.1234 10.7212 11.2494C10.648 11.3754 10.543 11.4799 10.4167 11.5526V12.5013C10.4167 12.6118 10.3728 12.7178 10.2947 12.7959C10.2166 12.8741 10.1106 12.918 10.0001 12.918C9.88957 12.918 9.78359 12.8741 9.70545 12.7959C9.62731 12.7178 9.58341 12.6118 9.58341 12.5013V11.5526C9.4566 11.4793 9.35131 11.374 9.27816 11.2471C9.20502 11.1203 9.16659 10.9764 9.16676 10.8299C9.16692 10.6835 9.20568 10.5397 9.27911 10.413C9.35255 10.2863 9.45807 10.1812 9.58506 10.1082C9.71205 10.0353 9.85601 9.99712 10.0024 9.99754C10.1489 9.99795 10.2926 10.0369 10.4192 10.1106C10.5458 10.1842 10.6507 10.29 10.7234 10.4171C10.7961 10.5442 10.8341 10.6882 10.8334 10.8346Z" fill="#BA8D5B"/>
</svg>
