<svg width="24" height="24" viewBox="0 0 24 24" fill="none" xmlns="http://www.w3.org/2000/svg">
<path d="M0 12C0 5.37258 5.37258 0 12 0C18.6274 0 24 5.37258 24 12C24 18.6274 18.6274 24 12 24C5.37258 24 0 18.6274 0 12Z" fill="#BA8D5B"/>
<path d="M18.1321 9.03817C17.9849 8.47267 17.5512 8.02736 17.0004 7.87623C16.0023 7.60156 11.9996 7.60156 11.9996 7.60156C11.9996 7.60156 7.99692 7.60156 6.99874 7.87623C6.44797 8.02736 6.01423 8.47267 5.86703 9.03817C5.59961 10.0631 5.59961 12.2016 5.59961 12.2016C5.59961 12.2016 5.59961 14.34 5.86703 15.365C6.01423 15.9305 6.44797 16.3758 6.99874 16.527C7.99692 16.8016 11.9996 16.8016 11.9996 16.8016C11.9996 16.8016 16.0023 16.8016 17.0004 16.527C17.5512 16.3758 17.9849 15.9305 18.1321 15.365C18.3996 14.34 18.3996 12.2016 18.3996 12.2016C18.3996 12.2016 18.3996 10.0631 18.1321 9.03817Z" fill="white"/>
<path d="M10.8008 14.3984V10.3984L14.0008 12.3985L10.8008 14.3984Z" fill="#BA8D5B"/>
</svg>
