<svg width="10" height="10" viewBox="0 0 10 10" fill="none" xmlns="http://www.w3.org/2000/svg">
<path d="M5.00008 0.417969C4.44775 0.41863 3.91823 0.638336 3.52767 1.02889C3.13712 1.41945 2.91741 1.94897 2.91675 2.5013V3.65339C2.37764 4.08502 1.98591 4.67343 1.79569 5.33733C1.60547 6.00122 1.62615 6.70781 1.85487 7.35944C2.08359 8.01107 2.50907 8.57557 3.07249 8.97494C3.63592 9.3743 4.30947 9.5888 5.00008 9.5888C5.69069 9.5888 6.36425 9.3743 6.92767 8.97494C7.4911 8.57557 7.91657 8.01107 8.14529 7.35944C8.37402 6.70781 8.3947 6.00122 8.20447 5.33733C8.01425 4.67343 7.62252 4.08502 7.08341 3.65339V2.5013C7.08275 1.94897 6.86305 1.41945 6.47249 1.02889C6.08193 0.638336 5.55241 0.41863 5.00008 0.417969ZM3.75008 2.5013C3.75008 2.16978 3.88178 1.85184 4.1162 1.61742C4.35062 1.383 4.66856 1.2513 5.00008 1.2513C5.3316 1.2513 5.64954 1.383 5.88397 1.61742C6.11839 1.85184 6.25008 2.16978 6.25008 2.5013V3.16339C5.44887 2.83618 4.5513 2.83618 3.75008 3.16339V2.5013ZM7.50008 6.2513C7.50008 6.74576 7.35346 7.2291 7.07875 7.64023C6.80405 8.05135 6.41361 8.37178 5.95679 8.561C5.49997 8.75022 4.99731 8.79973 4.51236 8.70327C4.0274 8.6068 3.58195 8.3687 3.23231 8.01907C2.88268 7.66944 2.64458 7.22398 2.54812 6.73903C2.45166 6.25408 2.50116 5.75141 2.69038 5.29459C2.8796 4.83778 3.20003 4.44733 3.61116 4.17263C4.02228 3.89792 4.50563 3.7513 5.00008 3.7513C5.66292 3.75196 6.29842 4.01557 6.76712 4.48427C7.23582 4.95296 7.49942 5.58846 7.50008 6.2513ZM5.83341 5.83464C5.83301 5.98033 5.79429 6.12335 5.72116 6.24936C5.64803 6.37536 5.54305 6.47993 5.41675 6.55255V7.5013C5.41675 7.61181 5.37285 7.71779 5.29471 7.79593C5.21657 7.87407 5.11059 7.91797 5.00008 7.91797C4.88957 7.91797 4.78359 7.87407 4.70545 7.79593C4.62731 7.71779 4.58341 7.61181 4.58341 7.5013V6.55255C4.4566 6.47933 4.35131 6.37398 4.27816 6.24712C4.20502 6.12026 4.16659 5.97636 4.16676 5.82992C4.16692 5.68348 4.20568 5.53967 4.27911 5.41297C4.35255 5.28628 4.45807 5.18117 4.58506 5.10824C4.71205 5.03531 4.85601 4.99712 5.00245 4.99754C5.14889 4.99795 5.29263 5.03695 5.4192 5.1106C5.54577 5.18425 5.6507 5.28995 5.72342 5.41706C5.79614 5.54417 5.83408 5.6882 5.83341 5.83464Z" fill="#BA8D5B"/>
</svg>
